<?xml version="1.0" encoding="iso-8859-1"?>
<!-- Uploaded to: SVG Repo, www.svgrepo.com, Generator: SVG Repo Mixer Tools -->
<svg fill="#000000" height="800px" width="800px" version="1.1" id="Layer_1" xmlns="http://www.w3.org/2000/svg" xmlns:xlink="http://www.w3.org/1999/xlink" 
	 viewBox="0 0 700 700" xml:space="preserve">
<g transform="translate(1 1)">
	<g>
		<g>
			<path d="M496.387,435.907L361.56,299.373l-12.373,12.373l-55.771-55.771c19.25-26.662,30.598-59.415,30.598-94.842
				C324.013,71.533,251.48-1,161.88-1S-0.253,71.533-0.253,161.133S72.28,323.267,161.88,323.267
				c35.46,0,68.241-11.369,94.917-30.652l56.059,55.463l-11.883,11.883L435.8,496.493c7.68,8.533,18.773,12.8,29.867,12.8
				c11.093,0,22.187-5.12,30.72-12.8C512.6,479.427,512.6,452.12,496.387,435.907z M442.594,406.576l-35.84,35.84l-38.993-39.264
				l35.84-35.84L442.594,406.576z M16.813,161.133c0-80.213,64.853-145.067,145.067-145.067S306.947,80.92,306.947,161.133
				c0,33.829-11.535,64.926-30.893,89.578l-0.027,0.035c-0.565,0.719-1.141,1.427-1.719,2.135c-0.277,0.339-0.555,0.678-0.835,1.014
				c-0.454,0.545-0.912,1.086-1.374,1.625c-0.415,0.483-0.833,0.964-1.254,1.441c-0.387,0.44-0.773,0.879-1.165,1.314
				c-0.535,0.593-1.077,1.178-1.621,1.762c-0.308,0.331-0.613,0.665-0.925,0.994c-1.74,1.832-3.526,3.618-5.358,5.358
				c-0.328,0.311-0.663,0.616-0.994,0.925c-0.583,0.544-1.169,1.086-1.762,1.621c-0.435,0.392-0.874,0.779-1.314,1.165
				c-0.478,0.421-0.958,0.839-1.441,1.254c-0.538,0.461-1.079,0.92-1.624,1.373c-0.337,0.281-0.677,0.559-1.017,0.837
				c-0.706,0.577-1.414,1.152-2.131,1.716l-0.041,0.032c-24.652,19.355-55.747,30.889-89.573,30.889
				C81.667,306.2,16.813,241.347,16.813,161.133z M270.414,281.614c2.076-1.871,4.107-3.791,6.084-5.766
				c0.033-0.033,0.065-0.065,0.098-0.098c1.975-1.976,3.894-4.007,5.765-6.083l54.453,54.453l-11.947,11.947L270.414,281.614z
				 M361.127,324.543l30.448,30.659l-35.84,35.84l-30.868-31.082L361.127,324.543z M483.587,483.693
				c-9.387,9.387-26.453,9.387-35.84,0l-28.967-29.168l35.84-35.84l28.967,29.168C493.827,457.24,493.827,473.453,483.587,483.693z"
				/>
			<path d="M213.08,186.733c-11.618,0-21.924,5.886-28.096,14.82l-59.043-29.522c1.164-3.427,1.806-7.091,1.806-10.899
				c0-5.326-1.239-10.375-3.438-14.878l60.85-33.83C191.35,121.22,201.57,127,213.08,127c18.773,0,34.133-15.36,34.133-34.133
				c0-18.773-15.36-34.133-34.133-34.133c-18.773,0-34.133,15.36-34.133,34.133c0,1.144,0.059,2.275,0.17,3.391l-66.176,36.79
				c-5.505-3.808-12.166-6.048-19.328-6.048c-18.773,0-34.133,15.36-34.133,34.133c0,18.773,15.36,34.133,34.133,34.133
				c8.787,0,16.826-3.366,22.893-8.871l62.594,31.297c-0.098,1.046-0.154,2.104-0.154,3.174c0,18.773,15.36,34.133,34.133,34.133
				c18.773,0,34.133-15.36,34.133-34.133C247.213,202.093,231.853,186.733,213.08,186.733z M213.08,75.8
				c9.387,0,17.067,7.68,17.067,17.067c0,9.387-7.68,17.067-17.067,17.067c-9.387,0-17.067-7.68-17.067-17.067
				C196.013,83.48,203.693,75.8,213.08,75.8z M93.613,178.2c-9.387,0-17.067-7.68-17.067-17.067c0-9.387,7.68-17.067,17.067-17.067
				c9.387,0,17.067,7.68,17.067,17.067C110.68,170.52,103,178.2,93.613,178.2z M213.08,237.933c-9.387,0-17.067-7.68-17.067-17.067
				c0-9.387,7.68-17.067,17.067-17.067c9.387,0,17.067,7.68,17.067,17.067C230.147,230.253,222.467,237.933,213.08,237.933z"/>
		</g>
	</g>
</g>
</svg>
