<?xml version="1.0" encoding="iso-8859-1"?>
<!-- Uploaded to: SVG Repo, www.svgrepo.com, Generator: SVG Repo Mixer Tools -->
<svg fill="#000000" height="800px" width="800px" version="1.1" id="Layer_1" xmlns="http://www.w3.org/2000/svg" xmlns:xlink="http://www.w3.org/1999/xlink" 
	 viewBox="0 0 800 512" xml:space="preserve">
<g transform="translate(1 1)">
	<g>
		<g>
			<path d="M456.387,351.427c-4.267-3.413-9.387-2.56-11.947,1.707L396.653,421.4l-33.28-27.307
				c-3.413-3.413-9.387-2.56-11.947,0.853c-3.413,3.413-2.56,9.387,0.853,11.947l40.96,33.28c0.853,0.853,3.413,1.707,5.12,1.707
				c0,0,0.853,0,0.853,0.853c2.56,0,4.267-1.707,5.973-3.413l52.907-75.947C461.507,359.107,460.653,353.987,456.387,351.427z"/>
			<path d="M58.733,24.6C39.96,24.6,24.6,39.96,24.6,58.733s15.36,34.133,34.133,34.133s34.133-15.36,34.133-34.133
				S77.507,24.6,58.733,24.6z M58.733,75.8c-9.387,0-17.067-7.68-17.067-17.067s7.68-17.067,17.067-17.067S75.8,49.347,75.8,58.733
				S68.12,75.8,58.733,75.8z"/>
			<path d="M135.533,24.6c-18.773,0-34.133,15.36-34.133,34.133s15.36,34.133,34.133,34.133c18.773,0,34.133-15.36,34.133-34.133
				S154.307,24.6,135.533,24.6z M135.533,75.8c-9.387,0-17.067-7.68-17.067-17.067s7.68-17.067,17.067-17.067
				s17.067,7.68,17.067,17.067S144.92,75.8,135.533,75.8z"/>
			<path d="M212.333,24.6c-18.773,0-34.133,15.36-34.133,34.133s15.36,34.133,34.133,34.133c18.773,0,34.133-15.36,34.133-34.133
				S231.107,24.6,212.333,24.6z M212.333,75.8c-9.387,0-17.067-7.68-17.067-17.067s7.68-17.067,17.067-17.067
				c9.387,0,17.067,7.68,17.067,17.067S221.72,75.8,212.333,75.8z"/>
			<path d="M487.107-1H23.747C10.093-1-1,10.093-1,23.747V101.4v17.067v363.52C-1,498.2,11.8,511,28.013,511h372.053
				C461.507,511,511,461.507,511,400.067v-281.6V101.4V23.747C511,10.093,499.907-1,487.107-1z M400.067,493.933
				c-52.053,0-93.867-41.813-93.867-93.867c0-52.053,41.813-93.867,93.867-93.867c52.053,0,93.867,41.813,93.867,93.867
				C493.933,452.12,452.12,493.933,400.067,493.933z M493.933,340.787c-18.349-29.068-49.837-48.939-86.242-51.39
				c-0.245-0.017-0.49-0.031-0.736-0.046c-0.877-0.053-1.756-0.096-2.639-0.129c-0.295-0.011-0.59-0.025-0.886-0.033
				c-1.118-0.033-2.239-0.055-3.365-0.055c-7.68,0-15.173,0.773-22.407,2.247c-6.329,1.289-12.459,3.114-18.341,5.426
				c-0.84,0.33-1.676,0.67-2.505,1.02c-4.98,2.1-9.773,4.552-14.347,7.327c-1.525,0.925-3.025,1.885-4.5,2.88
				c-7.375,4.975-14.115,10.815-20.076,17.376c-2.98,3.28-5.766,6.741-8.34,10.365c-1.029,1.449-2.025,2.925-2.985,4.425
				c-2.88,4.5-5.444,9.224-7.661,14.141c-0.739,1.639-1.439,3.299-2.1,4.98c-4.954,12.604-7.673,26.348-7.673,40.748
				c0,1.162,0.024,2.319,0.059,3.472c0.005,0.169,0.013,0.338,0.019,0.506c1.327,37.943,21.541,70.93,51.576,89.888H28.013
				c-6.827,0-11.947-5.12-11.947-11.947v-363.52h477.867V340.787z M16.067,101.4V23.747c0-4.267,3.413-7.68,7.68-7.68h462.507
				c4.267,0,7.68,3.413,7.68,7.68V101.4H16.067z"/>
			<path d="M50.2,178.2h110.933c5.12,0,8.533-3.413,8.533-8.533s-3.413-8.533-8.533-8.533H50.2c-5.12,0-8.533,3.413-8.533,8.533
				S45.08,178.2,50.2,178.2z"/>
			<path d="M195.267,178.2H280.6c5.12,0,8.533-3.413,8.533-8.533s-3.413-8.533-8.533-8.533h-85.333c-5.12,0-8.533,3.413-8.533,8.533
				S190.147,178.2,195.267,178.2z"/>
			<path d="M314.733,178.2H331.8c5.12,0,8.533-3.413,8.533-8.533s-3.413-8.533-8.533-8.533h-17.067c-5.12,0-8.533,3.413-8.533,8.533
				S309.613,178.2,314.733,178.2z"/>
			<path d="M237.933,203.8c0,5.12,3.413,8.533,8.533,8.533h128c5.12,0,8.533-3.413,8.533-8.533c0-5.12-3.413-8.533-8.533-8.533h-128
				C241.347,195.267,237.933,198.68,237.933,203.8z"/>
			<path d="M220.867,203.8c0-5.12-3.413-8.533-8.533-8.533H92.867c-5.12,0-8.533,3.413-8.533,8.533c0,5.12,3.413,8.533,8.533,8.533
				h119.467C217.453,212.333,220.867,208.92,220.867,203.8z"/>
			<path d="M50.2,212.333h8.533c5.12,0,8.533-3.413,8.533-8.533c0-5.12-3.413-8.533-8.533-8.533H50.2
				c-5.12,0-8.533,3.413-8.533,8.533C41.667,208.92,45.08,212.333,50.2,212.333z"/>
			<path d="M50.2,246.467H127c5.12,0,8.533-3.413,8.533-8.533S132.12,229.4,127,229.4H50.2c-5.12,0-8.533,3.413-8.533,8.533
				S45.08,246.467,50.2,246.467z"/>
			<path d="M161.133,246.467H178.2c5.12,0,8.533-3.413,8.533-8.533s-3.413-8.533-8.533-8.533h-17.067
				c-5.12,0-8.533,3.413-8.533,8.533S156.013,246.467,161.133,246.467z"/>
			<path d="M331.8,229.4H212.333c-5.12,0-8.533,3.413-8.533,8.533s3.413,8.533,8.533,8.533H331.8c5.12,0,8.533-3.413,8.533-8.533
				S336.92,229.4,331.8,229.4z"/>
			<path d="M50.2,280.6h110.933c5.12,0,8.533-3.413,8.533-8.533c0-5.12-3.413-8.533-8.533-8.533H50.2
				c-5.12,0-8.533,3.413-8.533,8.533C41.667,277.187,45.08,280.6,50.2,280.6z"/>
			<path d="M280.6,263.533h-85.333c-5.12,0-8.533,3.413-8.533,8.533c0,5.12,3.413,8.533,8.533,8.533H280.6
				c5.12,0,8.533-3.413,8.533-8.533C289.133,266.947,285.72,263.533,280.6,263.533z"/>
			<path d="M280.6,297.667h-34.133c-5.12,0-8.533,3.413-8.533,8.533s3.413,8.533,8.533,8.533H280.6c5.12,0,8.533-3.413,8.533-8.533
				S285.72,297.667,280.6,297.667z"/>
			<path d="M84.333,306.2c0,5.12,3.413,8.533,8.533,8.533h119.467c5.12,0,8.533-3.413,8.533-8.533s-3.413-8.533-8.533-8.533H92.867
				C87.747,297.667,84.333,301.08,84.333,306.2z"/>
			<path d="M50.2,314.733h8.533c5.12,0,8.533-3.413,8.533-8.533s-3.413-8.533-8.533-8.533H50.2c-5.12,0-8.533,3.413-8.533,8.533
				S45.08,314.733,50.2,314.733z"/>
			<path d="M50.2,348.867H127c5.12,0,8.533-3.413,8.533-8.533c0-5.12-3.413-8.533-8.533-8.533H50.2c-5.12,0-8.533,3.413-8.533,8.533
				C41.667,345.453,45.08,348.867,50.2,348.867z"/>
			<path d="M161.133,348.867H178.2c5.12,0,8.533-3.413,8.533-8.533c0-5.12-3.413-8.533-8.533-8.533h-17.067
				c-5.12,0-8.533,3.413-8.533,8.533C152.6,345.453,156.013,348.867,161.133,348.867z"/>
			<path d="M272.067,331.8h-59.733c-5.12,0-8.533,3.413-8.533,8.533c0,5.12,3.413,8.533,8.533,8.533h59.733
				c5.12,0,8.533-3.413,8.533-8.533C280.6,335.213,277.187,331.8,272.067,331.8z"/>
			<path d="M50.2,383h110.933c5.12,0,8.533-3.413,8.533-8.533s-3.413-8.533-8.533-8.533H50.2c-5.12,0-8.533,3.413-8.533,8.533
				S45.08,383,50.2,383z"/>
			<path d="M195.267,383h42.667c5.12,0,8.533-3.413,8.533-8.533s-3.413-8.533-8.533-8.533h-42.667c-5.12,0-8.533,3.413-8.533,8.533
				S190.147,383,195.267,383z"/>
			<path d="M84.333,408.6c0,5.12,3.413,8.533,8.533,8.533h119.467c5.12,0,8.533-3.413,8.533-8.533s-3.413-8.533-8.533-8.533H92.867
				C87.747,400.067,84.333,403.48,84.333,408.6z"/>
			<path d="M50.2,417.133h8.533c5.12,0,8.533-3.413,8.533-8.533s-3.413-8.533-8.533-8.533H50.2c-5.12,0-8.533,3.413-8.533,8.533
				S45.08,417.133,50.2,417.133z"/>
			<path d="M50.2,451.267H127c5.12,0,8.533-3.413,8.533-8.533S132.12,434.2,127,434.2H50.2c-5.12,0-8.533,3.413-8.533,8.533
				S45.08,451.267,50.2,451.267z"/>
			<path d="M178.2,434.2h-17.067c-5.12,0-8.533,3.413-8.533,8.533s3.413,8.533,8.533,8.533H178.2c5.12,0,8.533-3.413,8.533-8.533
				S183.32,434.2,178.2,434.2z"/>
			<path d="M255,434.2h-42.667c-5.12,0-8.533,3.413-8.533,8.533s3.413,8.533,8.533,8.533H255c5.12,0,8.533-3.413,8.533-8.533
				S260.12,434.2,255,434.2z"/>
		</g>
	</g>
</g>
</svg>
