<svg width="285" height="83" viewBox="0 0 285 83" fill="none" xmlns="http://www.w3.org/2000/svg">
<path d="M14.0469 0.75V69H0.03125V0.75H14.0469ZM53 34.4062V45H26.5156V34.4062H53ZM86.0469 69H71.1875L71.2812 58.0312H86.0469C89.7344 58.0312 92.8438 57.2031 95.375 55.5469C97.9062 53.8594 99.8125 51.4062 101.094 48.1875C102.406 44.9688 103.062 41.0781 103.062 36.5156V33.1875C103.062 29.6875 102.688 26.6094 101.938 23.9531C101.219 21.2969 100.141 19.0625 98.7031 17.25C97.2656 15.4375 95.5 14.0781 93.4062 13.1719C91.3125 12.2344 88.9062 11.7656 86.1875 11.7656H70.9062V0.75H86.1875C90.75 0.75 94.9219 1.53125 98.7031 3.09375C102.516 4.625 105.812 6.82813 108.594 9.70312C111.375 12.5781 113.516 16.0156 115.016 20.0156C116.547 23.9844 117.312 28.4062 117.312 33.2812V36.5156C117.312 41.3594 116.547 45.7812 115.016 49.7812C113.516 53.7812 111.375 57.2188 108.594 60.0938C105.844 62.9375 102.547 65.1406 98.7031 66.7031C94.8906 68.2344 90.6719 69 86.0469 69ZM79.1562 0.75V69H65.0938V0.75H79.1562ZM140.5 69.625C137.875 69.625 135.521 69.2083 133.438 68.375C131.354 67.5208 129.583 66.3438 128.125 64.8438C126.688 63.3438 125.583 61.6042 124.812 59.625C124.042 57.625 123.656 55.5 123.656 53.25V52C123.656 49.4375 124.021 47.0938 124.75 44.9688C125.479 42.8438 126.521 41 127.875 39.4375C129.25 37.875 130.917 36.6771 132.875 35.8438C134.833 34.9896 137.042 34.5625 139.5 34.5625C141.896 34.5625 144.021 34.9583 145.875 35.75C147.729 36.5417 149.281 37.6667 150.531 39.125C151.802 40.5833 152.76 42.3333 153.406 44.375C154.052 46.3958 154.375 48.6458 154.375 51.125V54.875H127.5V48.875H145.531V48.1875C145.531 46.9375 145.302 45.8229 144.844 44.8438C144.406 43.8438 143.74 43.0521 142.844 42.4688C141.948 41.8854 140.802 41.5938 139.406 41.5938C138.219 41.5938 137.198 41.8542 136.344 42.375C135.49 42.8958 134.792 43.625 134.25 44.5625C133.729 45.5 133.333 46.6042 133.062 47.875C132.812 49.125 132.688 50.5 132.688 52V53.25C132.688 54.6042 132.875 55.8542 133.25 57C133.646 58.1458 134.198 59.1354 134.906 59.9688C135.635 60.8021 136.51 61.4479 137.531 61.9062C138.573 62.3646 139.75 62.5938 141.062 62.5938C142.688 62.5938 144.198 62.2812 145.594 61.6562C147.01 61.0104 148.229 60.0417 149.25 58.75L153.625 63.5C152.917 64.5208 151.948 65.5 150.719 66.4375C149.51 67.375 148.052 68.1458 146.344 68.75C144.635 69.3333 142.688 69.625 140.5 69.625ZM168.312 42.4062V69H159.312V35.1875H167.75L168.312 42.4062ZM167 50.9062H164.562C164.562 48.4062 164.885 46.1562 165.531 44.1562C166.177 42.1354 167.083 40.4167 168.25 39C169.417 37.5625 170.802 36.4688 172.406 35.7188C174.031 34.9479 175.844 34.5625 177.844 34.5625C179.427 34.5625 180.875 34.7917 182.188 35.25C183.5 35.7083 184.625 36.4375 185.562 37.4375C186.521 38.4375 187.25 39.7604 187.75 41.4062C188.271 43.0521 188.531 45.0625 188.531 47.4375V69H179.469V47.4062C179.469 45.9062 179.26 44.7396 178.844 43.9062C178.427 43.0729 177.812 42.4896 177 42.1562C176.208 41.8021 175.229 41.625 174.062 41.625C172.854 41.625 171.802 41.8646 170.906 42.3438C170.031 42.8229 169.302 43.4896 168.719 44.3438C168.156 45.1771 167.729 46.1562 167.438 47.2812C167.146 48.4062 167 49.6146 167 50.9062ZM211.938 35.1875V41.5625H192.25V35.1875H211.938ZM197.125 26.8438H206.125V58.8125C206.125 59.7917 206.25 60.5417 206.5 61.0625C206.771 61.5833 207.167 61.9479 207.688 62.1562C208.208 62.3438 208.865 62.4375 209.656 62.4375C210.219 62.4375 210.719 62.4167 211.156 62.375C211.615 62.3125 212 62.25 212.312 62.1875L212.344 68.8125C211.573 69.0625 210.74 69.2604 209.844 69.4062C208.948 69.5521 207.958 69.625 206.875 69.625C204.896 69.625 203.167 69.3021 201.688 68.6562C200.229 67.9896 199.104 66.9271 198.312 65.4688C197.521 64.0104 197.125 62.0938 197.125 59.7188V26.8438ZM226.562 35.1875V69H217.531V35.1875H226.562ZM216.969 26.375C216.969 25.0625 217.427 23.9792 218.344 23.125C219.26 22.2708 220.49 21.8438 222.031 21.8438C223.552 21.8438 224.771 22.2708 225.688 23.125C226.625 23.9792 227.094 25.0625 227.094 26.375C227.094 27.6875 226.625 28.7708 225.688 29.625C224.771 30.4792 223.552 30.9062 222.031 30.9062C220.49 30.9062 219.26 30.4792 218.344 29.625C217.427 28.7708 216.969 27.6875 216.969 26.375ZM250.562 35.1875V41.5625H230.875V35.1875H250.562ZM235.75 26.8438H244.75V58.8125C244.75 59.7917 244.875 60.5417 245.125 61.0625C245.396 61.5833 245.792 61.9479 246.312 62.1562C246.833 62.3438 247.49 62.4375 248.281 62.4375C248.844 62.4375 249.344 62.4167 249.781 62.375C250.24 62.3125 250.625 62.25 250.938 62.1875L250.969 68.8125C250.198 69.0625 249.365 69.2604 248.469 69.4062C247.573 69.5521 246.583 69.625 245.5 69.625C243.521 69.625 241.792 69.3021 240.312 68.6562C238.854 67.9896 237.729 66.9271 236.938 65.4688C236.146 64.0104 235.75 62.0938 235.75 59.7188V26.8438ZM265.719 65.1875L274.688 35.1875H284.344L270.75 74.0938C270.458 74.9479 270.062 75.8646 269.562 76.8438C269.083 77.8229 268.427 78.75 267.594 79.625C266.781 80.5208 265.75 81.25 264.5 81.8125C263.271 82.375 261.76 82.6562 259.969 82.6562C259.115 82.6562 258.417 82.6042 257.875 82.5C257.333 82.3958 256.688 82.25 255.938 82.0625V75.4688C256.167 75.4688 256.406 75.4688 256.656 75.4688C256.906 75.4896 257.146 75.5 257.375 75.5C258.562 75.5 259.531 75.3646 260.281 75.0938C261.031 74.8229 261.635 74.4062 262.094 73.8438C262.552 73.3021 262.917 72.5938 263.188 71.7188L265.719 65.1875ZM261.969 35.1875L269.312 59.6875L270.594 69.2188L264.469 69.875L252.312 35.1875H261.969Z" fill="#1A1F36"/>
</svg>
