<svg width="118" height="69" viewBox="0 0 118 69" fill="none" xmlns="http://www.w3.org/2000/svg">
<path d="M14.0469 0.75V69H0.03125V0.75H14.0469ZM53 34.4062V45H26.5156V34.4062H53ZM86.0469 69H71.1875L71.2812 58.0312H86.0469C89.7344 58.0312 92.8438 57.2031 95.375 55.5469C97.9062 53.8594 99.8125 51.4062 101.094 48.1875C102.406 44.9688 103.062 41.0781 103.062 36.5156V33.1875C103.062 29.6875 102.688 26.6094 101.938 23.9531C101.219 21.2969 100.141 19.0625 98.7031 17.25C97.2656 15.4375 95.5 14.0781 93.4062 13.1719C91.3125 12.2344 88.9062 11.7656 86.1875 11.7656H70.9062V0.75H86.1875C90.75 0.75 94.9219 1.53125 98.7031 3.09375C102.516 4.625 105.812 6.82813 108.594 9.70312C111.375 12.5781 113.516 16.0156 115.016 20.0156C116.547 23.9844 117.312 28.4062 117.312 33.2812V36.5156C117.312 41.3594 116.547 45.7812 115.016 49.7812C113.516 53.7812 111.375 57.2188 108.594 60.0938C105.844 62.9375 102.547 65.1406 98.7031 66.7031C94.8906 68.2344 90.6719 69 86.0469 69ZM79.1562 0.75V69H65.0938V0.75H79.1562Z" fill="#1A1F36"/>
</svg>
