<svg width="303" height="77" viewBox="0 0 303 77" fill="none" xmlns="http://www.w3.org/2000/svg">
<path d="M14.0312 0.5V46H4.6875V0.5H14.0312ZM40 22.9375V30H22.3438V22.9375H40ZM62.0312 46H52.125L52.1875 38.6875H62.0312C64.4896 38.6875 66.5625 38.1354 68.25 37.0312C69.9375 35.9062 71.2083 34.2708 72.0625 32.125C72.9375 29.9792 73.375 27.3854 73.375 24.3438V22.125C73.375 19.7917 73.125 17.7396 72.625 15.9688C72.1458 14.1979 71.4271 12.7083 70.4688 11.5C69.5104 10.2917 68.3333 9.38542 66.9375 8.78125C65.5417 8.15625 63.9375 7.84375 62.125 7.84375H51.9375V0.5H62.125C65.1667 0.5 67.9479 1.02083 70.4688 2.0625C73.0104 3.08333 75.2083 4.55208 77.0625 6.46875C78.9167 8.38542 80.3438 10.6771 81.3438 13.3438C82.3646 15.9896 82.875 18.9375 82.875 22.1875V24.3438C82.875 27.5729 82.3646 30.5208 81.3438 33.1875C80.3438 35.8542 78.9167 38.1458 77.0625 40.0625C75.2292 41.9583 73.0312 43.4271 70.4688 44.4688C67.9271 45.4896 65.1146 46 62.0312 46ZM57.4375 0.5V46H48.0625V0.5H57.4375ZM99.9219 46.4688C97.9531 46.4688 96.1875 46.1562 94.625 45.5312C93.0625 44.8906 91.7344 44.0078 90.6406 42.8828C89.5625 41.7578 88.7344 40.4531 88.1562 38.9688C87.5781 37.4688 87.2891 35.875 87.2891 34.1875V33.25C87.2891 31.3281 87.5625 29.5703 88.1094 27.9766C88.6562 26.3828 89.4375 25 90.4531 23.8281C91.4844 22.6562 92.7344 21.7578 94.2031 21.1328C95.6719 20.4922 97.3281 20.1719 99.1719 20.1719C100.969 20.1719 102.562 20.4688 103.953 21.0625C105.344 21.6562 106.508 22.5 107.445 23.5938C108.398 24.6875 109.117 26 109.602 27.5312C110.086 29.0469 110.328 30.7344 110.328 32.5938V35.4062H90.1719V30.9062H103.695V30.3906C103.695 29.4531 103.523 28.6172 103.18 27.8828C102.852 27.1328 102.352 26.5391 101.68 26.1016C101.008 25.6641 100.148 25.4453 99.1016 25.4453C98.2109 25.4453 97.4453 25.6406 96.8047 26.0312C96.1641 26.4219 95.6406 26.9688 95.2344 27.6719C94.8438 28.375 94.5469 29.2031 94.3438 30.1562C94.1562 31.0938 94.0625 32.125 94.0625 33.25V34.1875C94.0625 35.2031 94.2031 36.1406 94.4844 37C94.7812 37.8594 95.1953 38.6016 95.7266 39.2266C96.2734 39.8516 96.9297 40.3359 97.6953 40.6797C98.4766 41.0234 99.3594 41.1953 100.344 41.1953C101.562 41.1953 102.695 40.9609 103.742 40.4922C104.805 40.0078 105.719 39.2812 106.484 38.3125L109.766 41.875C109.234 42.6406 108.508 43.375 107.586 44.0781C106.68 44.7812 105.586 45.3594 104.305 45.8125C103.023 46.25 101.562 46.4688 99.9219 46.4688ZM120.781 26.0547V46H114.031V20.6406H120.359L120.781 26.0547ZM119.797 32.4297H117.969C117.969 30.5547 118.211 28.8672 118.695 27.3672C119.18 25.8516 119.859 24.5625 120.734 23.5C121.609 22.4219 122.648 21.6016 123.852 21.0391C125.07 20.4609 126.43 20.1719 127.93 20.1719C129.117 20.1719 130.203 20.3438 131.188 20.6875C132.172 21.0312 133.016 21.5781 133.719 22.3281C134.438 23.0781 134.984 24.0703 135.359 25.3047C135.75 26.5391 135.945 28.0469 135.945 29.8281V46H129.148V29.8047C129.148 28.6797 128.992 27.8047 128.68 27.1797C128.367 26.5547 127.906 26.1172 127.297 25.8672C126.703 25.6016 125.969 25.4688 125.094 25.4688C124.188 25.4688 123.398 25.6484 122.727 26.0078C122.07 26.3672 121.523 26.8672 121.086 27.5078C120.664 28.1328 120.344 28.8672 120.125 29.7109C119.906 30.5547 119.797 31.4609 119.797 32.4297ZM153.5 20.6406V25.4219H138.734V20.6406H153.5ZM142.391 14.3828H149.141V38.3594C149.141 39.0938 149.234 39.6562 149.422 40.0469C149.625 40.4375 149.922 40.7109 150.312 40.8672C150.703 41.0078 151.195 41.0781 151.789 41.0781C152.211 41.0781 152.586 41.0625 152.914 41.0312C153.258 40.9844 153.547 40.9375 153.781 40.8906L153.805 45.8594C153.227 46.0469 152.602 46.1953 151.93 46.3047C151.258 46.4141 150.516 46.4688 149.703 46.4688C148.219 46.4688 146.922 46.2266 145.812 45.7422C144.719 45.2422 143.875 44.4453 143.281 43.3516C142.688 42.2578 142.391 40.8203 142.391 39.0391V14.3828ZM164.469 20.6406V46H157.695V20.6406H164.469ZM157.273 14.0312C157.273 13.0469 157.617 12.2344 158.305 11.5938C158.992 10.9531 159.914 10.6328 161.07 10.6328C162.211 10.6328 163.125 10.9531 163.812 11.5938C164.516 12.2344 164.867 13.0469 164.867 14.0312C164.867 15.0156 164.516 15.8281 163.812 16.4688C163.125 17.1094 162.211 17.4297 161.07 17.4297C159.914 17.4297 158.992 17.1094 158.305 16.4688C157.617 15.8281 157.273 15.0156 157.273 14.0312ZM182.469 20.6406V25.4219H167.703V20.6406H182.469ZM171.359 14.3828H178.109V38.3594C178.109 39.0938 178.203 39.6562 178.391 40.0469C178.594 40.4375 178.891 40.7109 179.281 40.8672C179.672 41.0078 180.164 41.0781 180.758 41.0781C181.18 41.0781 181.555 41.0625 181.883 41.0312C182.227 40.9844 182.516 40.9375 182.75 40.8906L182.773 45.8594C182.195 46.0469 181.57 46.1953 180.898 46.3047C180.227 46.4141 179.484 46.4688 178.672 46.4688C177.188 46.4688 175.891 46.2266 174.781 45.7422C173.688 45.2422 172.844 44.4453 172.25 43.3516C171.656 42.2578 171.359 40.8203 171.359 39.0391V14.3828ZM193.836 43.1406L200.562 20.6406H207.805L197.609 49.8203C197.391 50.4609 197.094 51.1484 196.719 51.8828C196.359 52.6172 195.867 53.3125 195.242 53.9688C194.633 54.6406 193.859 55.1875 192.922 55.6094C192 56.0312 190.867 56.2422 189.523 56.2422C188.883 56.2422 188.359 56.2031 187.953 56.125C187.547 56.0469 187.062 55.9375 186.5 55.7969V50.8516C186.672 50.8516 186.852 50.8516 187.039 50.8516C187.227 50.8672 187.406 50.875 187.578 50.875C188.469 50.875 189.195 50.7734 189.758 50.5703C190.32 50.3672 190.773 50.0547 191.117 49.6328C191.461 49.2266 191.734 48.6953 191.938 48.0391L193.836 43.1406ZM191.023 20.6406L196.531 39.0156L197.492 46.1641L192.898 46.6562L183.781 20.6406H191.023Z" fill="#0C0014"/>
<path d="M81.4243 58.1021C81.4243 57.9709 81.3862 57.8524 81.3101 57.7466C81.2339 57.6408 81.0921 57.5435 80.8848 57.4546C80.6816 57.3615 80.3875 57.2769 80.0024 57.2007C79.6554 57.1245 79.3317 57.0293 79.0312 56.915C78.735 56.7965 78.4769 56.6548 78.2568 56.4897C78.041 56.3247 77.8717 56.13 77.749 55.9058C77.6263 55.6772 77.5649 55.417 77.5649 55.125C77.5649 54.8372 77.6263 54.5664 77.749 54.3125C77.876 54.0586 78.0558 53.8343 78.2886 53.6396C78.5256 53.4408 78.8133 53.2863 79.1519 53.1763C79.4946 53.062 79.8797 53.0049 80.3071 53.0049C80.9038 53.0049 81.4159 53.1001 81.8433 53.2905C82.2749 53.481 82.605 53.7433 82.8335 54.0776C83.0662 54.4077 83.1826 54.7843 83.1826 55.2075H81.3545C81.3545 55.0298 81.3164 54.8711 81.2402 54.7314C81.1683 54.5876 81.054 54.4754 80.8975 54.395C80.7451 54.3104 80.5462 54.2681 80.3008 54.2681C80.0977 54.2681 79.922 54.304 79.7739 54.376C79.6258 54.4437 79.5116 54.5368 79.4312 54.6553C79.355 54.7695 79.3169 54.8965 79.3169 55.0361C79.3169 55.1419 79.3381 55.2371 79.3804 55.3218C79.4269 55.4022 79.501 55.4762 79.6025 55.5439C79.7041 55.6117 79.8353 55.6751 79.9961 55.7344C80.1611 55.7894 80.3643 55.8402 80.6055 55.8867C81.1006 55.9883 81.5428 56.1216 81.9321 56.2866C82.3215 56.4474 82.6304 56.6675 82.8589 56.9468C83.0874 57.2218 83.2017 57.5837 83.2017 58.0322C83.2017 58.3369 83.134 58.6162 82.9985 58.8701C82.8631 59.124 82.6685 59.3462 82.4146 59.5366C82.1606 59.7228 81.856 59.8688 81.5005 59.9746C81.1493 60.0762 80.7536 60.127 80.3135 60.127C79.6745 60.127 79.1328 60.0127 78.6885 59.7842C78.2484 59.5557 77.9141 59.2658 77.6855 58.9146C77.4613 58.5591 77.3491 58.1951 77.3491 57.8228H79.082C79.0905 58.0724 79.154 58.2734 79.2725 58.4258C79.3952 58.5781 79.5496 58.6882 79.7358 58.7559C79.9263 58.8236 80.1315 58.8574 80.3516 58.8574C80.5885 58.8574 80.7853 58.8257 80.9419 58.7622C81.0985 58.6945 81.217 58.6056 81.2974 58.4956C81.382 58.3813 81.4243 58.2502 81.4243 58.1021ZM90.4098 60.127C89.8766 60.127 89.3984 60.0423 88.9752 59.873C88.5521 59.6995 88.1924 59.4604 87.8961 59.1558C87.6041 58.8511 87.3799 58.4977 87.2233 58.0957C87.0667 57.6895 86.9884 57.2578 86.9884 56.8008V56.5469C86.9884 56.0264 87.0625 55.5503 87.2106 55.1187C87.3587 54.687 87.5703 54.3125 87.8454 53.9951C88.1246 53.6777 88.4632 53.4344 88.861 53.2651C89.2588 53.0916 89.7073 53.0049 90.2067 53.0049C90.6933 53.0049 91.125 53.0853 91.5016 53.2461C91.8782 53.4069 92.1935 53.6354 92.4474 53.9316C92.7055 54.2279 92.9002 54.5833 93.0314 54.998C93.1626 55.4085 93.2282 55.8656 93.2282 56.3691V57.1309H87.7692V55.9121H91.4318V55.7725C91.4318 55.5186 91.3852 55.2922 91.2921 55.0933C91.2033 54.8901 91.0678 54.7293 90.8859 54.6108C90.7039 54.4924 90.4712 54.4331 90.1876 54.4331C89.9464 54.4331 89.7391 54.486 89.5656 54.5918C89.3921 54.6976 89.2503 54.8457 89.1403 55.0361C89.0345 55.2266 88.9541 55.4508 88.8991 55.709C88.8483 55.9629 88.8229 56.2422 88.8229 56.5469V56.8008C88.8229 57.0758 88.861 57.3298 88.9371 57.5625C89.0176 57.7952 89.1297 57.9963 89.2736 58.1655C89.4217 58.3348 89.5994 58.466 89.8068 58.5591C90.0184 58.6522 90.2575 58.6987 90.5241 58.6987C90.8541 58.6987 91.1609 58.6353 91.4445 58.5083C91.7322 58.3771 91.9798 58.1803 92.1871 57.918L93.0758 58.8828C92.9319 59.0902 92.7352 59.2891 92.4855 59.4795C92.24 59.6699 91.9438 59.8265 91.5968 59.9492C91.2498 60.0677 90.8541 60.127 90.4098 60.127ZM100.29 60.127C99.7571 60.127 99.2789 60.0423 98.8557 59.873C98.4326 59.6995 98.0729 59.4604 97.7766 59.1558C97.4846 58.8511 97.2604 58.4977 97.1038 58.0957C96.9472 57.6895 96.8689 57.2578 96.8689 56.8008V56.5469C96.8689 56.0264 96.943 55.5503 97.0911 55.1187C97.2392 54.687 97.4508 54.3125 97.7259 53.9951C98.0052 53.6777 98.3437 53.4344 98.7415 53.2651C99.1393 53.0916 99.5878 53.0049 100.087 53.0049C100.574 53.0049 101.005 53.0853 101.382 53.2461C101.759 53.4069 102.074 53.6354 102.328 53.9316C102.586 54.2279 102.781 54.5833 102.912 54.998C103.043 55.4085 103.109 55.8656 103.109 56.3691V57.1309H97.6497V55.9121H101.312V55.7725C101.312 55.5186 101.266 55.2922 101.173 55.0933C101.084 54.8901 100.948 54.7293 100.766 54.6108C100.584 54.4924 100.352 54.4331 100.068 54.4331C99.8269 54.4331 99.6196 54.486 99.4461 54.5918C99.2726 54.6976 99.1308 54.8457 99.0208 55.0361C98.915 55.2266 98.8346 55.4508 98.7796 55.709C98.7288 55.9629 98.7034 56.2422 98.7034 56.5469V56.8008C98.7034 57.0758 98.7415 57.3298 98.8177 57.5625C98.8981 57.7952 99.0102 57.9963 99.1541 58.1655C99.3022 58.3348 99.4799 58.466 99.6873 58.5591C99.8989 58.6522 100.138 58.6987 100.405 58.6987C100.735 58.6987 101.041 58.6353 101.325 58.5083C101.613 58.3771 101.86 58.1803 102.068 57.918L102.956 58.8828C102.812 59.0902 102.616 59.2891 102.366 59.4795C102.121 59.6699 101.824 59.8265 101.477 59.9492C101.13 60.0677 100.735 60.127 100.29 60.127ZM116.471 53.1318V54.4268H112.472V53.1318H116.471ZM113.462 51.437H115.291V57.9307C115.291 58.1296 115.316 58.2819 115.367 58.3877C115.422 58.4935 115.502 58.5675 115.608 58.6099C115.714 58.6479 115.847 58.667 116.008 58.667C116.122 58.667 116.224 58.6628 116.313 58.6543C116.406 58.6416 116.484 58.6289 116.547 58.6162L116.554 59.9619C116.397 60.0127 116.228 60.0529 116.046 60.0825C115.864 60.1121 115.663 60.127 115.443 60.127C115.041 60.127 114.69 60.0614 114.389 59.9302C114.093 59.7948 113.864 59.5789 113.704 59.2827C113.543 58.9865 113.462 58.5972 113.462 58.1147V51.437ZM122.156 50.25V60H120.328V50.25H122.156ZM121.896 56.3247H121.394C121.398 55.8465 121.462 55.4064 121.585 55.0044C121.707 54.5981 121.883 54.2469 122.112 53.9507C122.34 53.6502 122.613 53.4175 122.93 53.2524C123.252 53.0874 123.607 53.0049 123.997 53.0049C124.335 53.0049 124.642 53.0535 124.917 53.1509C125.196 53.244 125.436 53.3963 125.634 53.6079C125.838 53.8153 125.994 54.0882 126.104 54.4268C126.214 54.7653 126.269 55.1758 126.269 55.6582V60H124.428V55.6455C124.428 55.3408 124.384 55.1017 124.295 54.9282C124.21 54.7505 124.086 54.6257 123.921 54.5537C123.76 54.4775 123.561 54.4395 123.324 54.4395C123.062 54.4395 122.837 54.4881 122.651 54.5854C122.469 54.6828 122.323 54.8182 122.213 54.9917C122.103 55.161 122.023 55.3599 121.972 55.5884C121.921 55.8169 121.896 56.0623 121.896 56.3247ZM133.681 60.127C133.147 60.127 132.669 60.0423 132.246 59.873C131.823 59.6995 131.463 59.4604 131.167 59.1558C130.875 58.8511 130.651 58.4977 130.494 58.0957C130.337 57.6895 130.259 57.2578 130.259 56.8008V56.5469C130.259 56.0264 130.333 55.5503 130.481 55.1187C130.629 54.687 130.841 54.3125 131.116 53.9951C131.395 53.6777 131.734 53.4344 132.132 53.2651C132.529 53.0916 132.978 53.0049 133.477 53.0049C133.964 53.0049 134.396 53.0853 134.772 53.2461C135.149 53.4069 135.464 53.6354 135.718 53.9316C135.976 54.2279 136.171 54.5833 136.302 54.998C136.433 55.4085 136.499 55.8656 136.499 56.3691V57.1309H131.04V55.9121H134.702V55.7725C134.702 55.5186 134.656 55.2922 134.563 55.0933C134.474 54.8901 134.339 54.7293 134.157 54.6108C133.975 54.4924 133.742 54.4331 133.458 54.4331C133.217 54.4331 133.01 54.486 132.836 54.5918C132.663 54.6976 132.521 54.8457 132.411 55.0361C132.305 55.2266 132.225 55.4508 132.17 55.709C132.119 55.9629 132.094 56.2422 132.094 56.5469V56.8008C132.094 57.0758 132.132 57.3298 132.208 57.5625C132.288 57.7952 132.4 57.9963 132.544 58.1655C132.692 58.3348 132.87 58.466 133.077 58.5591C133.289 58.6522 133.528 58.6987 133.795 58.6987C134.125 58.6987 134.432 58.6353 134.715 58.5083C135.003 58.3771 135.25 58.1803 135.458 57.918L136.347 58.8828C136.203 59.0902 136.006 59.2891 135.756 59.4795C135.511 59.6699 135.215 59.8265 134.868 59.9492C134.521 60.0677 134.125 60.127 133.681 60.127ZM149.861 53.1318V54.4268H145.862V53.1318H149.861ZM146.853 51.437H148.681V57.9307C148.681 58.1296 148.706 58.2819 148.757 58.3877C148.812 58.4935 148.892 58.5675 148.998 58.6099C149.104 58.6479 149.237 58.667 149.398 58.667C149.512 58.667 149.614 58.6628 149.703 58.6543C149.796 58.6416 149.874 58.6289 149.938 58.6162L149.944 59.9619C149.787 60.0127 149.618 60.0529 149.436 60.0825C149.254 60.1121 149.053 60.127 148.833 60.127C148.431 60.127 148.08 60.0614 147.779 59.9302C147.483 59.7948 147.255 59.5789 147.094 59.2827C146.933 58.9865 146.853 58.5972 146.853 58.1147V51.437ZM155.591 54.6299V60H153.762V53.1318H155.483L155.591 54.6299ZM157.66 53.0874L157.628 54.7822C157.539 54.7695 157.431 54.759 157.304 54.7505C157.182 54.7378 157.07 54.7314 156.968 54.7314C156.71 54.7314 156.486 54.7653 156.295 54.833C156.109 54.8965 155.952 54.9917 155.825 55.1187C155.703 55.2456 155.61 55.4001 155.546 55.582C155.487 55.764 155.453 55.9714 155.445 56.2041L155.076 56.0898C155.076 55.6455 155.121 55.2371 155.21 54.8647C155.299 54.4881 155.428 54.1602 155.597 53.8809C155.77 53.6016 155.982 53.3857 156.232 53.2334C156.481 53.0811 156.767 53.0049 157.089 53.0049C157.19 53.0049 157.294 53.0133 157.4 53.0303C157.505 53.043 157.592 53.062 157.66 53.0874ZM165.446 58.356V53.1318H167.274V60H165.554L165.446 58.356ZM165.649 56.9468L166.188 56.9341C166.188 57.3911 166.135 57.8164 166.03 58.21C165.924 58.5993 165.765 58.9378 165.554 59.2256C165.342 59.5091 165.075 59.7313 164.754 59.8921C164.432 60.0487 164.053 60.127 163.618 60.127C163.283 60.127 162.974 60.0804 162.691 59.9873C162.412 59.89 162.17 59.7397 161.967 59.5366C161.768 59.3293 161.612 59.0648 161.497 58.7432C161.387 58.4173 161.332 58.0259 161.332 57.5688V53.1318H163.161V57.5815C163.161 57.7847 163.184 57.9561 163.23 58.0957C163.281 58.2354 163.351 58.3496 163.44 58.4385C163.529 58.5273 163.632 58.5908 163.751 58.6289C163.874 58.667 164.009 58.686 164.157 58.686C164.534 58.686 164.83 58.6099 165.046 58.4575C165.266 58.3052 165.42 58.0978 165.509 57.8354C165.602 57.5688 165.649 57.2726 165.649 56.9468ZM174.895 53.1318V54.4268H170.896V53.1318H174.895ZM171.886 51.437H173.714V57.9307C173.714 58.1296 173.739 58.2819 173.79 58.3877C173.845 58.4935 173.925 58.5675 174.031 58.6099C174.137 58.6479 174.27 58.667 174.431 58.667C174.545 58.667 174.647 58.6628 174.736 58.6543C174.829 58.6416 174.907 58.6289 174.971 58.6162L174.977 59.9619C174.821 60.0127 174.651 60.0529 174.469 60.0825C174.287 60.1121 174.086 60.127 173.866 60.127C173.464 60.127 173.113 60.0614 172.813 59.9302C172.516 59.7948 172.288 59.5789 172.127 59.2827C171.966 58.9865 171.886 58.5972 171.886 58.1147V51.437ZM180.579 50.25V60H178.751V50.25H180.579ZM180.319 56.3247H179.818C179.822 55.8465 179.885 55.4064 180.008 55.0044C180.131 54.5981 180.306 54.2469 180.535 53.9507C180.763 53.6502 181.036 53.4175 181.354 53.2524C181.675 53.0874 182.031 53.0049 182.42 53.0049C182.759 53.0049 183.065 53.0535 183.341 53.1509C183.62 53.244 183.859 53.3963 184.058 53.6079C184.261 53.8153 184.417 54.0882 184.528 54.4268C184.638 54.7653 184.693 55.1758 184.693 55.6582V60H182.852V55.6455C182.852 55.3408 182.807 55.1017 182.718 54.9282C182.634 54.7505 182.509 54.6257 182.344 54.5537C182.183 54.4775 181.984 54.4395 181.747 54.4395C181.485 54.4395 181.261 54.4881 181.074 54.5854C180.892 54.6828 180.746 54.8182 180.636 54.9917C180.526 55.161 180.446 55.3599 180.395 55.5884C180.344 55.8169 180.319 56.0623 180.319 56.3247Z" fill="#117ACA"/>
</svg>
